<?xml version="1.0" encoding="utf-8"?>
<!-- Generator: Adobe Illustrator 28.3.0, SVG Export Plug-In . SVG Version: 6.00 Build 0)  -->
<svg version="1.1" id="uuid-57f3d54d-a5d6-4460-99ba-56e6d4ecaff3"
	 xmlns="http://www.w3.org/2000/svg" xmlns:xlink="http://www.w3.org/1999/xlink" x="0px" y="0px" viewBox="0 0 47.3 46.4"
	 style="enable-background:new 0 0 47.3 46.4;" xml:space="preserve">
<style type="text/css">
	.st0{fill:#E6E6E6;}
	.st1{fill:#94979C;}
	.st2{fill:#9E91A1;}
	.st3{fill:url(#SVGID_1_);}
	.st4{fill:#635055;}
	.st5{fill:#818990;}
	.st6{fill:#A38B9A;}
	.st7{fill:#534C50;}
	.st8{fill:#3C3E45;}
	.st9{fill:#373137;}
	.st10{fill:url(#SVGID_00000119088713633394491810000010679993819619733694_);}
	.st11{fill:#8E7786;}
	.st12{fill:#413F45;}
	.st13{fill:#B5A6AC;}
	.st14{fill:#202024;}
</style>
<g id="uuid-03c75901-8ee6-4bc4-add5-ab8048caec17">
	<g>
		<path class="st0" d="M47.2,21.3l-0.1,1.5c-1.2,0.6-0.9,0.2-1.2,0.2c-0.7,0.1-0.1,1.5-0.6,2.2c1-13.6-11.4-25.1-25.1-23
			C10.8,4,2.5,11.9,1.9,21.8c0,0.8,0.2,0.8,0.2,0.8c0,0-0.5,0.1,0,0.6c-0.5,0.1-0.2,2.9-0.1,3.7c-0.6-2.1-0.3-4.3-0.2-6.5
			c-0.1-0.2-1.5-0.1-1.6,0.2C2,3.9,20.9-5.5,35.9,3.4C42.2,7.2,46.7,13.9,47.2,21.3z"/>
		<path class="st1" d="M46.7,29.2c-0.2,0.7-0.7,1.8-0.8,2.4c-0.4,0.8-0.8,1.6-1.2,2.4c-0.4,0.7-0.8,1.4-1.3,2.1
			c-0.2,0.3-0.4,0.5-0.6,0.8c-0.3-0.3,0.2-1,0.2-1c0-0.1-0.9,0-0.6-1L41.8,35c1.3-1.9,2.3-4,2.9-6.2c0-0.1,0.2,0,0.2-0.1
			c0.1-0.5,0.1-1.3,0.2-1.8c0.1-0.5,0.2-1.4,0.3-1.8c0.5-0.6-0.1-2.1,0.6-2.2c0.3,0,0,0.3,1.2-0.2l0.1-1.5
			C47.6,25.7,46.7,28.8,46.7,29.2L46.7,29.2z"/>
		<path class="st1" d="M2,26.9c0,0.2,0,0.4,0,0.5c-0.3,0.5-1.1,0.2-1.1,0.3c-0.3,0.1,0,0.9-0.4,0.7c-0.1-0.5-0.2-1.1-0.3-1.6
			C0,25.4,0,24.2,0,22.8c0-0.3,0-0.7,0-1c0-0.4,0.1-0.8,0.2-1.2c0.1-0.3,1.5-0.5,1.6-0.2C1.7,22.5,1.4,24.7,2,26.9L2,26.9z"/>
		<path class="st2" d="M41.8,35l0.6-0.1c-0.3,1,0.5,0.8,0.6,1c0,0-0.5,0.7-0.2,1c-0.3,0.4-0.8,1-1.1,1.4c-1.8,2-4.6,4.2-7.1,5.4
			c-4.3,2.2-8.4,3-13.2,2.5c-2.5-0.3-5.2-0.9-7.5-1.9c-4.4-1.9-8.3-5.6-10.8-9.6c-0.9-1.4-1.6-2.9-2.2-4.4c-0.2-0.5-0.4-1.4-0.5-1.9
			c0.4,0.1,0.1-0.6,0.4-0.7c0.1,0,0.8,0.2,1.1-0.3c0.3,1.7,2.6,6.7,3.8,8.3c1.7,1.6,3.1,3.4,4.9,4.8c4.5,3.3,10.8,5,16.3,4.3
			c0.4-0.4,1.5-0.3,2-0.5c0.1,0,0-0.2,0.1-0.3c2-0.6,3.1-0.8,5-1.9c1.2-0.7,1.6-1.3,1.8-1.5c0,0,0.5,0,0.9-0.4
			C38.2,39.3,40.8,36.5,41.8,35L41.8,35z"/>
		
			<linearGradient id="SVGID_1_" gradientUnits="userSpaceOnUse" x1="25.4454" y1="35.6293" x2="21.1354" y2="2.3393" gradientTransform="matrix(1 0 0 -1 0 45.89)">
			<stop  offset="0" style="stop-color:#A89D9F"/>
			<stop  offset="1" style="stop-color:#826E72"/>
		</linearGradient>
		<path class="st3" d="M22.1,9.6c-3.7,0.9-3.4,5.3-3.6,5.7c-0.1,0.2-2.4-0.1-3.4,1.8c-0.6,1.1-0.3,4-0.4,5.5c0,1.8-0.1,12.2,0,12.8
			c0.2,1.1,1.5,2.4,2.6,2.7c0.6,0.1,10.9,0.2,11.5,0.2c5.1-0.4,3.6-6.2,3.7-10.1c0-2.2,0-4.4,0-6.6c0-1.4,0.4-2.9-0.3-4.2
			c-1-2.1-3.4-1.9-3.5-2.1c-0.2-0.2,0.2-4-2.6-5.3c5.5-0.3,11,1.9,14.2,6.4c0.8-0.6,2.1-1,2.2-1.4c1.3,2.5,2,4.9,2.3,7.7
			c0.2,1.4,0,3.1,0.4,4.4c-0.1,0.4-0.1,1.3-0.2,1.8c0,0.1-0.2,0-0.2,0.1c-0.6,2.2-1.6,4.3-2.9,6.2c-1,1.5-3.6,4.2-5,5.3
			c-0.5,0.3-0.9,0.3-0.9,0.4c-0.2,0.2-0.6,0.7-1.8,1.5c-1.9,1.1-2.9,1.3-5,1.9c-0.1,0,0,0.2-0.1,0.3c-0.5,0.1-1.6,0.1-2,0.5
			c-5.5,0.6-11.8-1-16.3-4.3c-1.9-1.4-3.3-3.2-4.9-4.8c-1.2-1.6-3.5-6.5-3.8-8.3c0-0.2,0-0.4,0-0.5c-0.1-0.8-0.4-3.6,0.1-3.7
			l1.3-5.1c0.4-1.3,1-2.5,1.6-3.7c0.3,0.1,2.1,1.2,2.2,1.2c0.2,0,1.3-1.5,2.9-2.7c2.8-2.1,6.4-3.2,9.9-3.4
			C20.8,9.4,22.2,9.3,22.1,9.6L22.1,9.6z"/>
		<path class="st4" d="M45.3,25.2c0,0.4-0.2,1.3-0.3,1.8c-0.3-1.3-0.2-3-0.4-4.4c-0.3-2.8-1.1-5.2-2.3-7.7c-2.1-4.1-5.4-7.5-9.5-9.7
			C22.6-0.3,10.3,4.2,5,14.4c-0.6,1.2-1.2,2.4-1.6,3.7l-1.3,5.1c-0.5-0.5,0-0.5,0-0.6c0,0-0.2,0-0.2-0.8C2.5,11.9,10.8,4,20.2,2.2
			C33.9,0.1,46.4,11.5,45.3,25.2z"/>
		<path class="st5" d="M21.5,46.2c0,0.5-3.6-0.2-4.4-0.5c-0.6-0.2-2.9-1-3.1-1.5C16.3,45.3,19,46,21.5,46.2z"/>
		<path class="st6" d="M42.4,14.8c-0.1,0.5-1.5,0.9-2.2,1.4c-3.2-4.5-8.7-6.7-14.2-6.4c-1.1-0.5-2.7-0.6-3.9-0.3
			c0.1-0.2-1.3-0.2-2.1-0.2c-3.4,0.2-7.1,1.4-9.9,3.4c-1.6,1.2-2.7,2.7-2.9,2.7c-0.1,0-1.9-1.1-2.2-1.2C10.3,4.2,22.6-0.3,32.9,5.2
			C37,7.3,40.3,10.7,42.4,14.8L42.4,14.8z"/>
		<g>
			<path class="st7" d="M14.9,22.7c-0.1,0-0.2,0-0.2,0c-0.1,0.6,0.1,5.2,0,6.6c0.2,0.4,2.5-2.5,3-2.1c0,0.1,1,1,1,1.1
				c0.1,0.4-0.1,1.7,0,2.4c0.4,3.2,5.4,4.2,8.1,2.1c2.4-1.8,1-2.9,1.7-4.6l0,2.8c1-0.7,2-1.6,3-2.4c0.3-0.2,0.6-0.4,0.9-0.6
				c0,3.9,1.5,9.7-3.7,10.1c-0.6,0-10.9-0.1-11.5-0.2c-1.1-0.2-2.4-1.6-2.6-2.7c-0.1-0.6,0-11,0-12.8C14.9,22.6,14.9,22.7,14.9,22.7
				L14.9,22.7z"/>
			<path class="st8" d="M32.4,21.4c0,2.2,0,4.4,0,6.6c-0.3,0.2-0.6,0.4-0.9,0.6l-2.3-1.5c0.1-0.4,0.1-0.6,0.1-1
				c0.3-1.4,0-2.7-0.6-3.9L32.4,21.4L32.4,21.4z"/>
			<path class="st9" d="M14.9,22.7c0.9,0.5,1.8,0.9,2.6,1.5c-0.2,1-0.4,2.1,0.2,3.1c-0.5-0.4-2.8,2.5-3,2.1c0.1-1.4-0.1-6,0-6.6
				C14.8,22.7,14.9,22.7,14.9,22.7L14.9,22.7z"/>
			<g>
				
					<linearGradient id="SVGID_00000090287106138387304320000016882483683054623131_" gradientUnits="userSpaceOnUse" x1="31.0104" y1="29.0179" x2="15.0904" y2="26.0279" gradientTransform="matrix(1 0 0 -1 0 45.89)">
					<stop  offset="0" style="stop-color:#4B4A52"/>
					<stop  offset="1" style="stop-color:#3C3E45"/>
				</linearGradient>
				<path style="fill:url(#SVGID_00000090287106138387304320000016882483683054623131_);" d="M26,9.9c2.8,1.3,2.5,5,2.6,5.3
					c0.1,0.2,2.5,0,3.5,2.1c0.7,1.4,0.2,2.8,0.3,4.2l-3.7,0.8c0.6,1.2,0.9,2.6,0.6,3.9c0.5-8.1-10.2-9.3-11.8-2
					c-0.9-0.5-1.8-0.9-2.6-1.5c0,0-0.1-0.1-0.3-0.2c0-1.5-0.2-4.4,0.4-5.5c1-1.9,3.3-1.6,3.4-1.8c0.2-0.3-0.1-4.8,3.6-5.7
					C23.3,9.3,24.8,9.3,26,9.9z"/>
				<path class="st11" d="M23,12.4c2.1-0.4,2.6,2.4,1,2.9C21.9,15.9,21.3,12.8,23,12.4z"/>
			</g>
			<path class="st12" d="M31.5,28.7c-1,0.8-2,1.6-3,2.4l0-2.8c0.2-0.4,0.7-1,0.7-1.1L31.5,28.7L31.5,28.7z"/>
			<g>
				<path class="st13" d="M29.3,26.1c0,0.4,0,0.6-0.1,1c0,0.1-0.6,0.7-0.7,1.1c-0.7,1.7,0.7,2.9-1.7,4.6c-2.7,2-7.7,1.1-8.1-2.1
					c-0.1-0.6,0.1-2,0-2.4c0-0.1-1-1.1-1-1.1c-0.5-1-0.4-2-0.2-3.1C19.1,16.8,29.8,18,29.3,26.1L29.3,26.1z"/>
				<path class="st14" d="M24.7,26c-0.2,0.5,0,2.9-0.1,3c-1.7-0.2-2.3,0.7-2.3-1.3c0-0.5,0-1.5,0-1.7c-0.1-0.2-2.1-1.2-0.9-3.3
					c0.9-1.6,3.5-1.5,4.3,0.2C26.7,24.9,24.9,25.7,24.7,26L24.7,26z"/>
				<path class="st7" d="M22.3,27.7c0,1.9,0.6,1.1,2.3,1.3c0.2-0.1-0.1-2.5,0.1-3c-0.1,0.8,0.3,3.8-0.3,4.1
					C21.7,30.4,22.4,29.7,22.3,27.7z"/>
			</g>
		</g>
	</g>
</g>
</svg>
