<?xml version="1.0" encoding="UTF-8"?>
<svg id="uuid-57f3d54d-a5d6-4460-99ba-56e6d4ecaff3" data-name="Ebene 2" xmlns="http://www.w3.org/2000/svg" xmlns:xlink="http://www.w3.org/1999/xlink" viewBox="0 0 47.33 46.42">
  <defs>
    <linearGradient id="uuid-84b2b6c0-487f-4ba4-b860-bb41b8ee72e7" data-name="Unbenannter Verlauf 43" x1="25.44" y1="10.26" x2="21.13" y2="43.55" gradientUnits="userSpaceOnUse">
      <stop offset="0" stop-color="#a8707b"/>
      <stop offset="1" stop-color="#82404e"/>
    </linearGradient>
    <linearGradient id="uuid-77799ce8-903d-4d6a-b7e1-47d7b92fa4d9" data-name="Unbenannter Verlauf 42" x1="31.01" y1="16.87" x2="15.09" y2="19.86" gradientUnits="userSpaceOnUse">
      <stop offset="0" stop-color="#332e52"/>
      <stop offset="1" stop-color="#242b45"/>
    </linearGradient>
  </defs>
  <g id="uuid-03c75901-8ee6-4bc4-add5-ab8048caec17" data-name="Ebene 1">
    <g>
      <path d="M47.25,21.27l-.09,1.49c-1.21.57-.9.19-1.22.23-.73.09-.13,1.54-.59,2.17C46.36,11.51,33.9.09,20.24,2.17,10.81,4,2.5,11.88,1.91,21.76c-.05.78.18.77.18.81,0,.04-.47.14,0,.59-.53.1-.2,2.94-.09,3.71-.57-2.12-.28-4.32-.18-6.47-.11-.23-1.52-.06-1.63.23C2.05,3.91,20.93-5.48,35.89,3.44c6.28,3.74,10.77,10.5,11.36,17.83Z" style="fill: #d2cae6; stroke-width: 0px;"/>
      <path d="M46.71,29.23c-.25.7-.71,1.75-.81,2.44-.4.79-.75,1.58-1.18,2.35-.39.71-.8,1.42-1.27,2.08-.19.28-.43.55-.63.81-.32-.34.2-.99.18-1.04-.04-.11-.91,0-.59-.95l-.59.09c1.32-1.9,2.33-3.96,2.9-6.2.02-.07.16-.02.18-.09.11-.46.11-1.33.18-1.76.08-.48.24-1.4.27-1.81.45-.63-.14-2.08.59-2.17.32-.04.01.34,1.22-.23l.09-1.49c.35,4.42-.57,7.56-.54,7.96Z" style="fill: #71819c; stroke-width: 0px;"/>
      <path d="M2,26.88c.02.17-.03.38,0,.54-.32.45-1.07.25-1.13.27-.28.11.02.87-.41.72-.11-.53-.2-1.09-.27-1.63C.01,25.36-.02,24.24.01,22.8c0-.33-.02-.67,0-1,.03-.41.14-.78.18-1.18.11-.28,1.52-.45,1.63-.23-.1,2.15-.39,4.36.18,6.47Z" style="fill: #71819c; stroke-width: 0px;"/>
      <path d="M41.82,35.02l.59-.09c-.32.95.54.84.59.95.02.05-.51.7-.18,1.04-.31.4-.77,1.01-1.09,1.36-1.85,2.03-4.6,4.19-7.06,5.43-4.28,2.15-8.43,3.03-13.21,2.53-2.49-.26-5.2-.92-7.51-1.9-4.39-1.86-8.26-5.58-10.77-9.59-.87-1.4-1.65-2.87-2.17-4.43-.18-.54-.42-1.35-.54-1.9.42.14.12-.61.41-.72.06-.02.81.18,1.13-.27.31,1.73,2.57,6.66,3.8,8.28,1.66,1.58,3.08,3.38,4.93,4.75,4.46,3.31,10.79,4.98,16.29,4.34.43-.38,1.51-.32,1.99-.45.09-.02,0-.25.09-.27,2.03-.57,3.06-.77,4.98-1.9,1.21-.71,1.6-1.29,1.81-1.45.04-.03.46-.02.9-.36,1.43-1.11,3.98-3.84,5.02-5.34Z" style="fill: #935ba1; stroke-width: 0px;"/>
      <path d="M22.09,9.59c-3.7.89-3.43,5.33-3.62,5.66-.1.18-2.4-.13-3.44,1.81-.6,1.12-.34,4.02-.36,5.47-.03,1.77-.1,12.17,0,12.81.18,1.11,1.49,2.43,2.58,2.67.56.13,10.89.23,11.49.18,5.14-.38,3.63-6.22,3.67-10.14.02-2.22.05-4.38,0-6.61-.03-1.42.39-2.86-.27-4.21-1.01-2.06-3.41-1.91-3.53-2.08-.18-.25.19-3.97-2.62-5.29,5.45-.31,10.95,1.88,14.16,6.43.75-.58,2.1-.97,2.22-1.45,1.26,2.52,2.01,4.92,2.35,7.74.17,1.39.01,3.12.36,4.39-.07.44-.07,1.31-.18,1.76-.02.07-.16.02-.18.09-.56,2.24-1.57,4.3-2.9,6.2-1.05,1.5-3.59,4.23-5.02,5.34-.45.35-.87.33-.9.36-.21.15-.6.74-1.81,1.45-1.92,1.13-2.94,1.33-4.98,1.9-.09.03,0,.25-.09.27-.48.13-1.57.07-1.99.45-5.5.64-11.83-1.03-16.29-4.34-1.85-1.37-3.27-3.17-4.93-4.75-1.23-1.62-3.49-6.55-3.8-8.28-.03-.16.02-.37,0-.54-.1-.77-.44-3.61.09-3.71l1.27-5.11c.44-1.28,1.01-2.47,1.63-3.67.31.12,2.09,1.19,2.22,1.18.2-.02,1.27-1.52,2.9-2.71,2.8-2.05,6.42-3.25,9.86-3.44.82-.04,2.25-.07,2.13.18Z" style="fill: url(#uuid-84b2b6c0-487f-4ba4-b860-bb41b8ee72e7); stroke-width: 0px;"/>
      <path d="M45.35,25.16c-.03.41-.19,1.33-.27,1.81-.35-1.27-.19-3-.36-4.39-.34-2.82-1.09-5.22-2.35-7.74-2.06-4.12-5.36-7.53-9.46-9.68C22.56-.29,10.27,4.23,4.99,14.39c-.62,1.2-1.19,2.39-1.63,3.67l-1.27,5.11c-.47-.45,0-.55,0-.59,0-.05-.23-.04-.18-.81C2.5,11.88,10.81,4,20.24,2.17,33.9.09,46.36,11.51,45.35,25.16Z" style="fill: #632d3b; stroke-width: 0px;"/>
      <path d="M21.46,46.24c.05.5-3.56-.22-4.39-.45-.6-.16-2.87-.99-3.12-1.45,2.31.98,5.02,1.64,7.51,1.9Z" style="fill: #667d90; stroke-width: 0px;"/>
      <path d="M42.36,14.84c-.11.48-1.47.87-2.22,1.45-3.22-4.54-8.71-6.73-14.16-6.43-1.14-.54-2.7-.56-3.89-.27.12-.25-1.31-.23-2.13-.18-3.44.19-7.07,1.39-9.86,3.44-1.62,1.19-2.7,2.69-2.9,2.71-.12.01-1.91-1.06-2.22-1.18C10.27,4.23,22.56-.29,32.91,5.16c4.09,2.15,7.39,5.57,9.46,9.68Z" style="fill: #a35286; stroke-width: 0px;"/>
      <g>
        <path d="M14.94,22.71c-.06,0-.17-.02-.18.05-.14.59.11,5.22,0,6.61.2.41,2.48-2.49,2.99-2.13.04.07.97,1.02,1,1.13.1.37-.08,1.74,0,2.35.44,3.22,5.37,4.17,8.1,2.13,2.35-1.76,1.02-2.91,1.67-4.62l-.05,2.81c1.05-.73,2.02-1.57,3.03-2.35.28-.22.64-.38.9-.63-.03,3.92,1.47,9.75-3.67,10.14-.6.04-10.93-.06-11.49-.18-1.09-.24-2.4-1.56-2.58-2.67-.1-.63-.03-11.03,0-12.81.22.07.26.17.27.18Z" style="fill: #533443; stroke-width: 0px;"/>
        <path d="M32.41,21.45c.05,2.22.02,4.38,0,6.61-.26.25-.62.42-.9.63l-2.26-1.54c.12-.37.07-.63.09-1,.31-1.36-.03-2.71-.63-3.94l3.71-.77Z" style="fill: #242b45; stroke-width: 0px;"/>
        <path d="M14.94,22.71c.86.51,1.77.93,2.62,1.45-.23,1.05-.35,2.1.18,3.08-.5-.37-2.78,2.54-2.99,2.13.11-1.39-.14-6.01,0-6.61.02-.07.12-.05.18-.05Z" style="fill: #371e36; stroke-width: 0px;"/>
        <g>
          <path d="M25.99,9.86c2.81,1.33,2.45,5.04,2.62,5.29.12.17,2.52.02,3.53,2.08.66,1.35.24,2.79.27,4.21l-3.71.77c.61,1.22.94,2.57.63,3.94.51-8.15-10.18-9.32-11.76-1.99-.85-.52-1.77-.94-2.62-1.45-.01,0-.05-.11-.27-.18.02-1.45-.23-4.36.36-5.47,1.04-1.94,3.34-1.63,3.44-1.81.19-.33-.08-4.77,3.62-5.66,1.19-.28,2.75-.27,3.89.27Z" style="fill: url(#uuid-77799ce8-903d-4d6a-b7e1-47d7b92fa4d9); stroke-width: 0px;"/>
          <path d="M23.04,12.4c2.12-.45,2.63,2.42,1,2.9-2.15.62-2.72-2.52-1-2.9Z" style="fill: #8e4574; stroke-width: 0px;"/>
        </g>
        <path d="M31.51,28.69c-1.01.78-1.98,1.62-3.03,2.35l.05-2.81c.16-.42.69-.97.72-1.09l2.26,1.54Z" style="fill: #342a45; stroke-width: 0px;"/>
        <g>
          <path d="M29.33,26.15c-.02.36.03.62-.09,1-.04.12-.56.67-.72,1.09-.66,1.71.68,2.85-1.67,4.62-2.73,2.05-7.66,1.09-8.1-2.13-.08-.61.1-1.99,0-2.35-.03-.11-.96-1.06-1-1.13-.53-.98-.41-2.02-.18-3.08,1.58-7.33,12.27-6.16,11.76,1.99Z" style="fill: #b56e8d; stroke-width: 0px;"/>
          <path d="M24.72,25.97c-.23.51.03,2.87-.14,2.99-1.72-.16-2.27.66-2.31-1.27-.02-.45.05-1.5,0-1.67-.06-.18-2.08-1.24-.9-3.26.94-1.61,3.54-1.49,4.34.18.95,1.97-.86,2.73-1,3.03Z" style="fill: #131524; stroke-width: 0px;"/>
          <path d="M22.28,27.69c.04,1.92.58,1.11,2.31,1.27.17-.12-.1-2.48.14-2.99-.14.78.31,3.76-.32,4.07-2.73.32-2.03-.31-2.13-2.35Z" style="fill: #533443; stroke-width: 0px;"/>
        </g>
      </g>
    </g>
  </g>
</svg>