<?xml version="1.0" encoding="UTF-8"?>
<svg id="uuid-966bb5bf-5afd-4a07-8d4c-ff573fe27f08" data-name="Ebene 2" xmlns="http://www.w3.org/2000/svg" xmlns:xlink="http://www.w3.org/1999/xlink" viewBox="0 0 297.1 225.61">
  <defs>
    <linearGradient id="uuid-fada678f-e21e-40d2-b22b-9a254a7b70df" data-name="Unbenannter Verlauf 5" x1="103.42" y1="21.84" x2="117.23" y2="141.97" gradientUnits="userSpaceOnUse">
      <stop offset="0" stop-color="#af519a"/>
      <stop offset="1" stop-color="#7b4846"/>
    </linearGradient>
    <linearGradient id="uuid-0645dcf7-861c-4332-a69c-b1936ea41e42" data-name="Unbenannter Verlauf 3" x1="501.9" y1="-290.5" x2="505.66" y2="-203.88" gradientTransform="translate(344.02 588.43) rotate(-90)" gradientUnits="userSpaceOnUse">
      <stop offset="0" stop-color="#292a61"/>
      <stop offset=".99" stop-color="#46bbbf"/>
    </linearGradient>
    <linearGradient id="uuid-ea42b355-4e4a-4116-9401-b320d4e46d78" data-name="Unbenannter Verlauf 2" x1="439.09" y1="-292.63" x2="445.18" y2="-152.33" gradientTransform="translate(344.02 588.43) rotate(-90)" gradientUnits="userSpaceOnUse">
      <stop offset="0" stop-color="#57aede"/>
      <stop offset="1" stop-color="#283272"/>
    </linearGradient>
    <filter id="uuid-0df6b957-a61a-4660-af3e-ca10a8d9f75c" data-name="drop-shadow-1" filterUnits="userSpaceOnUse">
      <feOffset dx="1" dy="1"/>
      <feGaussianBlur result="uuid-f4b9bf20-cd7b-4d7a-a0af-5877dc1f08c3" stdDeviation="2"/>
      <feFlood flood-color="#000" flood-opacity=".9"/>
      <feComposite in2="uuid-f4b9bf20-cd7b-4d7a-a0af-5877dc1f08c3" operator="in"/>
      <feComposite in="SourceGraphic"/>
    </filter>
    <filter id="uuid-631e7ad2-f7be-4e51-a6e9-15c1d078ece8" data-name="drop-shadow-2" filterUnits="userSpaceOnUse">
      <feOffset dx="1" dy="1"/>
      <feGaussianBlur result="uuid-08ec3a18-753d-4da2-aaf8-c8c8eb7b9988" stdDeviation="2"/>
      <feFlood flood-color="#000" flood-opacity=".9"/>
      <feComposite in2="uuid-08ec3a18-753d-4da2-aaf8-c8c8eb7b9988" operator="in"/>
      <feComposite in="SourceGraphic"/>
    </filter>
  </defs>
  <g id="uuid-39271819-4146-4139-b404-3fd4353a861e" data-name="Ebene 1">
    <path d="M166.54,13.87c1.12,1.97,10.34,9.21,10.5,10.25.22,1.45-1.81,2.35-.5,4.25-5.97-7.12-11.46-10.35-19.5-14.5C101.16-14.97,48.46,30.41,45.05,71.36c-.57-3.59-1.46-2.6-4-5,2.68-10.54,4.13-16.55,10-26.25C74.95.67,128-12.82,166.54,13.87Z" style="fill: #824a4c; stroke-width: 0px;"/>
    <path d="M108.37,176.26c-15.86.06-49.2,3.3-63.58.1-23.59-5.26-40.61-27.51-40.25-51.5.08-5.55,1.21-10.8,3-16l-2-7c-16.57,34.81,5.68,75.07,43.75,79.99,12.71,1.65,26.16,2.09,65.42,1.72,39.26-.37,72.95,4.61,95.56-14.22,16.09-13.4,22.81-34.14,19.75-54.5l-1,1.25c.98,3.95,2.09,27.48-4.5,22.75-8.17,31.85-69.37,38.5-69.49,38l-46.67-.6Z" style="fill: #1a1a30; stroke-width: 0px;"/>
    <path d="M196.54,69.86c1.72,1.04,4.03,1.45,5.75,2.5,14.61,8.91,25.22,25.67,27.75,42.5l-1,1.25c.98,3.95,2.09,27.48-4.5,22.75,1.75-6.81,2.17-13.05,1.5-20-1.14-11.93-6.46-23.87-14.5-32.75-10.28-11.36-19.44-12.42-20-13.5-.32-.62.24-6.02,0-7.75,5.36-1.77,2.4,4.16,4.25,5.5.04.03.47-.67.75-.5Z" style="fill: #1a1a30; stroke-width: 0px;"/>
    <path d="M196.54,69.86c-.28-.17-.71.53-.75.5-1.84-1.34,1.11-7.27-4.25-5.5-1.85-13.49-6.18-25.98-15-36.5-1.31-1.9.72-2.8.5-4.25-.16-1.04-9.38-8.28-10.5-10.25,19.34,13.39,28.25,32.92,30,56Z" style="fill: #642f41; stroke-width: 0px;"/>
    <path d="M113.54,139.36c-12.75,3.72-85.35,18.1-108.99-14.5-.36,23.98,16.65,46.24,40.25,51.5,14.37,3.2,37.02,2.93,59.25,1,22.23-1.93,51.12,0,51.25.5,29.85,3.19,61.07-7.15,69.25-39,1.75-6.81,2.17-13.05,1.5-20-19.82,25.8-67.43,21.43-79.49,19.5s-20.25-2.72-33,1Z" style="fill: #642f41; stroke-width: 0px;"/>
    <g>
      <path d="M45.05,71.36c-.11,1.35.36,2.75-.5,4-4.76,2.93-17.29,5-28,17.5,3.16-4.21,3.26-4.02,4-9.5,10.27-8.42,18.5-10.17,19.25-11,.95-1.05.65-3.65,1.25-6,2.54,2.4,3.43,1.41,4,5Z" style="fill: #642f41; stroke-width: 0px;"/>
      <path d="M20.55,83.36c-.74,5.48-.84,5.29-4,9.5-3.99,4.65-7.01,10.23-9,16l-2-7c3.66-7.69,8.49-13.17,15-18.5Z" style="fill: #642f41; stroke-width: 0px;"/>
      <path d="M157.04,13.87c8.04,4.15,13.53,7.38,19.5,14.5,8.82,10.51,13.15,23,15,36.5.24,1.73-.32,7.13,0,7.75.56,1.08,9.72,2.14,20,13.5,8.04,8.88,13.36,20.82,14.5,32.75-19.82,25.8-65.53,22.78-76.85,20.62s-24.17-3.62-35.64-.13c-11.47,3.5-84.51,19.79-108.99-14.5-3.22-4.51,1.21-10.8,3-16,1.99-5.77,5.01-11.35,9-16,10.7-12.49,23.24-14.57,28-17.5.35-.21.48.71,1,.25,1.51-1.35,9.61-22.54,32.75-18.25,15.28-29.68,33.8-17.98,36-18.5,2.65-.63,7.34-31.37,42.75-25Z" style="fill: url(#uuid-fada678f-e21e-40d2-b22b-9a254a7b70df); stroke-width: 0px;"/>
    </g>
    <path d="M157.04,13.87c-35.41-6.37-40.09,24.37-42.75,25-2.2.52-20.72-11.18-36,18.5-23.13-4.29-31.24,16.89-32.75,18.25-.52.46-.65-.46-1-.25.86-1.25.39-2.65.5-4,3.41-40.96,56.11-86.33,111.99-57.5Z" style="fill: #955aa1; stroke-width: 0px;"/>
    <path id="y" d="M48.01,84.65c0,27.05,21.92,48.97,48.97,48.97s48.97-21.92,48.97-48.97-21.92-48.97-48.97-48.97-48.97,21.92-48.97,48.97ZM135.08,84.65c0,21.04-17.06,38.1-38.1,38.1s-38.1-17.06-38.1-38.1,17.06-38.1,38.1-38.1,38.1,17.06,38.1,38.1Z" style="fill: url(#uuid-0645dcf7-861c-4332-a69c-b1936ea41e42); opacity: .66; stroke-width: 0px;"/>
    <path id="x" d="M42.45,146.29c0,43.81,35.51,79.32,79.32,79.32s79.32-35.51,79.32-79.32-35.51-79.32-79.32-79.32-79.32,35.51-79.32,79.32ZM183.48,146.29c0,34.08-27.63,61.71-61.71,61.71s-61.71-27.63-61.71-61.71,27.63-61.71,61.71-61.71,61.71,27.63,61.71,61.71Z" style="fill: url(#uuid-ea42b355-4e4a-4116-9401-b320d4e46d78); opacity: .66; stroke-width: 0px;"/>
    <g style="filter: url(#uuid-0df6b957-a61a-4660-af3e-ca10a8d9f75c);">
      <path d="M148.73,165.59c.02,1.41.92,1.99,1.97,1.99.75,0,1.2-.13,1.59-.3l.18.75c-.37.17-.99.36-1.91.36-1.76,0-2.82-1.16-2.82-2.89s1.02-3.09,2.69-3.09c1.87,0,2.37,1.65,2.37,2.7,0,.21-.02.38-.04.49h-4.03ZM151.79,164.85c.01-.66-.27-1.69-1.45-1.69-1.05,0-1.52.97-1.6,1.69h3.04Z" style="fill: #4e509e; stroke-width: 0px;"/>
      <path d="M154.54,162.54l.82,1.23c.21.32.39.62.58.94h.03c.19-.34.38-.64.57-.95l.81-1.22h1.13l-1.95,2.77,2.01,2.96h-1.19l-.84-1.29c-.23-.33-.41-.65-.62-.99h-.02c-.19.34-.39.65-.6.99l-.83,1.29h-1.15l2.04-2.93-1.94-2.81h1.16Z" style="fill: #4e509e; stroke-width: 0px;"/>
      <path d="M163.45,168.06c-.27.14-.88.33-1.65.33-1.73,0-2.86-1.17-2.86-2.93s1.21-3.04,3.08-3.04c.62,0,1.16.15,1.45.3l-.24.81c-.25-.14-.64-.27-1.21-.27-1.31,0-2.03.97-2.03,2.17,0,1.33.85,2.14,1.99,2.14.59,0,.98-.15,1.28-.28l.18.78Z" style="fill: #4e509e; stroke-width: 0px;"/>
      <path d="M164.66,159.86h1.04v3.58h.02c.17-.3.43-.56.75-.74.31-.18.68-.3,1.07-.3.77,0,2,.47,2,2.45v3.41h-1.04v-3.29c0-.92-.34-1.71-1.33-1.71-.68,0-1.21.47-1.4,1.04-.06.14-.07.3-.07.5v3.46h-1.04v-8.41Z" style="fill: #4e509e; stroke-width: 0px;"/>
      <path d="M174.41,168.27l-.08-.72h-.04c-.32.45-.94.85-1.75.85-1.16,0-1.75-.82-1.75-1.65,0-1.39,1.23-2.14,3.45-2.13v-.12c0-.47-.13-1.33-1.3-1.33-.53,0-1.09.17-1.49.43l-.24-.69c.47-.31,1.16-.51,1.88-.51,1.75,0,2.18,1.2,2.18,2.35v2.14c0,.5.02.98.09,1.37h-.95ZM174.26,165.34c-1.14-.02-2.43.18-2.43,1.29,0,.68.45.99.98.99.75,0,1.22-.47,1.39-.96.04-.11.06-.23.06-.33v-.99Z" style="fill: #4e509e; stroke-width: 0px;"/>
      <path d="M176.95,164.09c0-.59-.01-1.08-.05-1.55h.92l.06.95h.02c.28-.54.95-1.08,1.9-1.08.79,0,2.03.47,2.03,2.44v3.42h-1.04v-3.31c0-.92-.34-1.69-1.33-1.69-.69,0-1.22.49-1.4,1.07-.05.13-.07.31-.07.49v3.45h-1.04v-4.18Z" style="fill: #4e509e; stroke-width: 0px;"/>
      <path d="M188.46,162.54c-.02.41-.05.88-.05,1.58v3.33c0,1.31-.26,2.12-.82,2.62-.56.52-1.36.69-2.09.69s-1.45-.17-1.91-.47l.26-.79c.38.24.97.45,1.68.45,1.07,0,1.85-.56,1.85-2v-.64h-.02c-.32.53-.94.96-1.82.96-1.42,0-2.44-1.21-2.44-2.8,0-1.94,1.27-3.04,2.58-3.04.99,0,1.54.52,1.79.99h.02l.05-.86h.91ZM187.38,164.8c0-.18-.01-.33-.06-.47-.19-.6-.7-1.1-1.46-1.1-.99,0-1.71.84-1.71,2.17,0,1.13.57,2.06,1.69,2.06.64,0,1.22-.4,1.45-1.07.06-.18.08-.38.08-.56v-1.03Z" style="fill: #4e509e; stroke-width: 0px;"/>
      <path d="M190.72,165.59c.02,1.41.92,1.99,1.97,1.99.75,0,1.2-.13,1.59-.3l.18.75c-.37.17-.99.36-1.91.36-1.76,0-2.82-1.16-2.82-2.89s1.02-3.09,2.69-3.09c1.87,0,2.37,1.65,2.37,2.7,0,.21-.02.38-.04.49h-4.03ZM193.78,164.85c.01-.66-.27-1.69-1.45-1.69-1.05,0-1.52.97-1.6,1.69h3.04Z" style="fill: #4e509e; stroke-width: 0px;"/>
      <path d="M198.7,168.27v-4.94h-.81v-.79h.81v-.31c0-1.52.89-2.5,2.5-2.5.53,0,1.16.17,1.46.38l-.3.79c-.25-.18-.7-.33-1.21-.33-1.1,0-1.42.77-1.42,1.68v.29h3.33v5.73h-1.03v-4.94h-2.3v4.94h-1.03Z" style="fill: #4e509e; stroke-width: 0px;"/>
      <path d="M204.79,159.86h1.04v8.41h-1.04v-8.41Z" style="fill: #4e509e; stroke-width: 0px;"/>
      <path d="M208.16,165.59c.02,1.41.92,1.99,1.97,1.99.75,0,1.2-.13,1.59-.3l.18.75c-.37.17-.99.36-1.91.36-1.76,0-2.82-1.16-2.82-2.89s1.02-3.09,2.69-3.09c1.87,0,2.37,1.65,2.37,2.7,0,.21-.02.38-.04.49h-4.03ZM211.22,164.85c.01-.66-.27-1.69-1.45-1.69-1.05,0-1.52.97-1.6,1.69h3.04Z" style="fill: #4e509e; stroke-width: 0px;"/>
      <path d="M213.37,167.2c.31.2.85.42,1.37.42.76,0,1.11-.38,1.11-.85,0-.5-.3-.77-1.07-1.05-1.03-.37-1.52-.94-1.52-1.62,0-.92.75-1.68,1.98-1.68.58,0,1.09.17,1.41.36l-.26.76c-.23-.14-.64-.33-1.17-.33-.62,0-.96.36-.96.78,0,.47.34.69,1.09.97.99.38,1.5.88,1.5,1.73,0,1.01-.78,1.72-2.15,1.72-.63,0-1.21-.15-1.61-.39l.26-.79Z" style="fill: #4e509e; stroke-width: 0px;"/>
      <path d="M220.82,168.27v-4.94h-.81v-.79h.81v-.27c0-.81.18-1.54.66-2,.39-.38.91-.53,1.4-.53.37,0,.69.08.89.17l-.14.81c-.15-.07-.37-.13-.66-.13-.89,0-1.11.78-1.11,1.66v.31h1.39v.79h-1.39v4.94h-1.03Z" style="fill: #4e509e; stroke-width: 0px;"/>
      <path d="M224.18,164.33c0-.68-.01-1.26-.05-1.79h.91l.04,1.13h.05c.26-.77.89-1.26,1.59-1.26.12,0,.2.01.3.04v.98c-.11-.02-.21-.04-.36-.04-.74,0-1.26.56-1.4,1.34-.02.14-.05.31-.05.49v3.06h-1.03v-3.94Z" style="fill: #4e509e; stroke-width: 0px;"/>
      <path d="M233.12,165.36c0,2.12-1.47,3.04-2.86,3.04-1.55,0-2.75-1.14-2.75-2.95,0-1.92,1.26-3.04,2.84-3.04s2.76,1.2,2.76,2.95ZM228.57,165.41c0,1.26.72,2.2,1.74,2.2s1.74-.94,1.74-2.23c0-.97-.49-2.2-1.72-2.2s-1.76,1.14-1.76,2.23Z" style="fill: #4e509e; stroke-width: 0px;"/>
      <path d="M234.44,164.09c0-.59-.01-1.08-.05-1.55h.91l.05.92h.04c.32-.54.85-1.05,1.8-1.05.78,0,1.37.47,1.62,1.15h.02c.18-.32.4-.57.64-.75.34-.26.72-.4,1.27-.4.76,0,1.88.5,1.88,2.49v3.38h-1.02v-3.25c0-1.1-.4-1.76-1.24-1.76-.59,0-1.05.44-1.23.95-.05.14-.08.33-.08.52v3.54h-1.02v-3.44c0-.91-.4-1.58-1.2-1.58-.65,0-1.13.52-1.29,1.04-.06.15-.08.33-.08.51v3.46h-1.02v-4.18Z" style="fill: #4e509e; stroke-width: 0px;"/>
      <path d="M250,168.27l-.08-.72h-.04c-.32.45-.94.85-1.75.85-1.16,0-1.75-.82-1.75-1.65,0-1.39,1.23-2.14,3.45-2.13v-.12c0-.47-.13-1.33-1.3-1.33-.53,0-1.09.17-1.49.43l-.24-.69c.47-.31,1.16-.51,1.88-.51,1.75,0,2.18,1.2,2.18,2.35v2.14c0,.5.02.98.09,1.37h-.95ZM249.85,165.34c-1.14-.02-2.43.18-2.43,1.29,0,.68.45.99.98.99.75,0,1.22-.47,1.39-.96.04-.11.06-.23.06-.33v-.99Z" style="fill: #4e509e; stroke-width: 0px;"/>
      <path d="M252.54,164.09c0-.59-.01-1.08-.05-1.55h.92l.06.95h.02c.28-.54.95-1.08,1.9-1.08.79,0,2.03.47,2.03,2.44v3.42h-1.04v-3.31c0-.92-.34-1.69-1.33-1.69-.69,0-1.22.49-1.4,1.07-.05.13-.07.31-.07.49v3.45h-1.04v-4.18Z" style="fill: #4e509e; stroke-width: 0px;"/>
      <path d="M259.34,162.54l1.26,3.39c.13.38.27.83.37,1.17h.02c.11-.34.23-.78.37-1.2l1.14-3.36h1.1l-1.56,4.09c-.75,1.97-1.26,2.97-1.97,3.59-.51.45-1.02.63-1.28.68l-.26-.88c.26-.08.6-.25.91-.51.28-.23.64-.63.88-1.16.05-.11.08-.19.08-.25s-.02-.14-.07-.27l-2.12-5.28h1.14Z" style="fill: #4e509e; stroke-width: 0px;"/>
      <path d="M265.09,162.54l.76,2.91c.17.64.32,1.23.43,1.82h.04c.13-.58.32-1.2.51-1.81l.94-2.93h.88l.89,2.87c.21.69.38,1.29.51,1.87h.04c.09-.58.25-1.19.44-1.86l.82-2.88h1.03l-1.85,5.73h-.95l-.88-2.74c-.2-.64-.37-1.21-.51-1.88h-.02c-.14.69-.32,1.28-.52,1.9l-.92,2.72h-.95l-1.73-5.73h1.07Z" style="fill: #4e509e; stroke-width: 0px;"/>
      <path d="M273.4,159.86h1.04v3.58h.02c.17-.3.43-.56.75-.74.31-.18.68-.3,1.07-.3.77,0,2,.47,2,2.45v3.41h-1.04v-3.29c0-.92-.34-1.71-1.33-1.71-.68,0-1.21.47-1.4,1.04-.06.14-.07.3-.07.5v3.46h-1.04v-8.41Z" style="fill: #4e509e; stroke-width: 0px;"/>
      <path d="M280.55,165.59c.02,1.41.92,1.99,1.97,1.99.75,0,1.2-.13,1.59-.3l.18.75c-.37.17-.99.36-1.91.36-1.76,0-2.82-1.16-2.82-2.89s1.02-3.09,2.69-3.09c1.87,0,2.37,1.65,2.37,2.7,0,.21-.02.38-.04.49h-4.03ZM283.61,164.85c.01-.66-.27-1.69-1.45-1.69-1.05,0-1.52.97-1.6,1.69h3.04Z" style="fill: #4e509e; stroke-width: 0px;"/>
      <path d="M285.91,164.33c0-.68-.01-1.26-.05-1.79h.91l.04,1.13h.05c.26-.77.89-1.26,1.59-1.26.12,0,.2.01.3.04v.98c-.11-.02-.21-.04-.36-.04-.74,0-1.26.56-1.4,1.34-.02.14-.05.31-.05.49v3.06h-1.03v-3.94Z" style="fill: #4e509e; stroke-width: 0px;"/>
      <path d="M290.24,165.59c.02,1.41.92,1.99,1.97,1.99.75,0,1.2-.13,1.59-.3l.18.75c-.37.17-.99.36-1.91.36-1.76,0-2.82-1.16-2.82-2.89s1.02-3.09,2.69-3.09c1.87,0,2.37,1.65,2.37,2.7,0,.21-.02.38-.04.49h-4.03ZM293.3,164.85c.01-.66-.27-1.69-1.45-1.69-1.05,0-1.52.97-1.6,1.69h3.04Z" style="fill: #4e509e; stroke-width: 0px;"/>
    </g>
    <g style="filter: url(#uuid-631e7ad2-f7be-4e51-a6e9-15c1d078ece8);">
      <path d="M32.43,119.22h18.77v3.77h-14.27v11.58h13.18v3.72h-13.18v15.77h-4.5v-34.84Z" style="fill: #4e509e; stroke-width: 0px;"/>
      <path d="M61.18,122.01c.05,1.55-1.09,2.79-2.9,2.79-1.6,0-2.74-1.24-2.74-2.79s1.19-2.84,2.84-2.84,2.79,1.24,2.79,2.84ZM56.11,154.06v-25.02h4.55v25.02h-4.55Z" style="fill: #4e509e; stroke-width: 0px;"/>
      <path d="M68.2,117.36h4.55v36.71h-4.55v-36.71Z" style="fill: #4e509e; stroke-width: 0px;"/>
      <path d="M82.94,142.38c.1,6.15,4.03,8.68,8.58,8.68,3.26,0,5.22-.57,6.93-1.29l.78,3.26c-1.6.72-4.34,1.55-8.32,1.55-7.7,0-12.3-5.07-12.3-12.61s4.45-13.49,11.73-13.49c8.17,0,10.34,7.19,10.34,11.79,0,.93-.1,1.65-.16,2.12h-17.58ZM96.28,139.12c.05-2.9-1.19-7.39-6.31-7.39-4.6,0-6.62,4.24-6.98,7.39h13.29Z" style="fill: #4e509e; stroke-width: 0px;"/>
      <path d="M127.24,147.24c0,2.58.05,4.86.21,6.82h-4.03l-.26-4.08h-.1c-1.19,2.02-3.83,4.65-8.27,4.65-3.93,0-8.63-2.17-8.63-10.96v-14.63h4.55v13.86c0,4.76,1.45,7.96,5.58,7.96,3.05,0,5.17-2.12,6-4.14.26-.67.41-1.5.41-2.33v-15.35h4.55v18.2Z" style="fill: #4e509e; stroke-width: 0px;"/>
      <path d="M134.79,137.21c0-3.2-.1-5.79-.21-8.17h4.08l.21,4.29h.1c1.86-3.05,4.81-4.86,8.89-4.86,6.05,0,10.6,5.12,10.6,12.72,0,9-5.48,13.44-11.37,13.44-3.31,0-6.2-1.45-7.7-3.93h-.1v13.6h-4.5v-27.09ZM139.28,143.88c0,.67.1,1.29.21,1.86.83,3.15,3.57,5.32,6.82,5.32,4.81,0,7.6-3.93,7.6-9.67,0-5.01-2.64-9.31-7.44-9.31-3.1,0-6,2.22-6.88,5.64-.16.57-.31,1.24-.31,1.86v4.29Z" style="fill: #4e509e; stroke-width: 0px;"/>
      <path d="M164.2,117.36h4.55v36.71h-4.55v-36.71Z" style="fill: #4e509e; stroke-width: 0px;"/>
      <path d="M199.04,141.34c0,9.25-6.41,13.29-12.46,13.29-6.77,0-11.99-4.96-11.99-12.87,0-8.37,5.48-13.29,12.41-13.29s12.05,5.22,12.05,12.87ZM179.19,141.6c0,5.48,3.15,9.62,7.6,9.62s7.6-4.08,7.6-9.72c0-4.24-2.12-9.62-7.5-9.62s-7.7,4.96-7.7,9.72Z" style="fill: #4e509e; stroke-width: 0px;"/>
      <path d="M218.63,154.06l-.36-3.15h-.15c-1.4,1.96-4.08,3.72-7.65,3.72-5.07,0-7.65-3.57-7.65-7.19,0-6.05,5.38-9.36,15.04-9.31v-.52c0-2.07-.57-5.79-5.69-5.79-2.33,0-4.76.72-6.51,1.86l-1.03-3c2.07-1.34,5.07-2.22,8.22-2.22,7.65,0,9.51,5.22,9.51,10.24v9.36c0,2.17.1,4.29.41,6h-4.14ZM217.96,141.29c-4.96-.1-10.6.78-10.6,5.64,0,2.95,1.96,4.34,4.29,4.34,3.26,0,5.32-2.07,6.05-4.19.16-.46.26-.98.26-1.45v-4.34Z" style="fill: #4e509e; stroke-width: 0px;"/>
      <path d="M251.3,117.36v30.24c0,2.22.05,4.76.21,6.46h-4.08l-.21-4.34h-.1c-1.4,2.79-4.45,4.91-8.53,4.91-6.05,0-10.7-5.12-10.7-12.72-.05-8.32,5.12-13.44,11.22-13.44,3.83,0,6.41,1.81,7.55,3.83h.1v-14.94h4.55ZM246.75,139.22c0-.57-.05-1.34-.21-1.91-.67-2.9-3.15-5.27-6.57-5.27-4.7,0-7.5,4.14-7.5,9.67,0,5.07,2.48,9.25,7.39,9.25,3.05,0,5.84-2.02,6.67-5.43.16-.62.21-1.24.21-1.96v-4.34Z" style="fill: #4e509e; stroke-width: 0px;"/>
      <path d="M261.38,142.38c.1,6.15,4.03,8.68,8.58,8.68,3.26,0,5.22-.57,6.93-1.29l.78,3.26c-1.6.72-4.34,1.55-8.32,1.55-7.7,0-12.3-5.07-12.3-12.61s4.45-13.49,11.73-13.49c8.17,0,10.34,7.19,10.34,11.79,0,.93-.1,1.65-.16,2.12h-17.58ZM274.72,139.12c.05-2.9-1.19-7.39-6.31-7.39-4.6,0-6.62,4.24-6.98,7.39h13.29Z" style="fill: #4e509e; stroke-width: 0px;"/>
      <path d="M284.74,136.85c0-2.95-.05-5.48-.21-7.81h3.98l.15,4.91h.21c1.14-3.36,3.88-5.48,6.93-5.48.52,0,.88.05,1.29.15v4.29c-.47-.1-.93-.15-1.55-.15-3.21,0-5.48,2.43-6.1,5.84-.1.62-.21,1.34-.21,2.12v13.34h-4.5v-17.22Z" style="fill: #4e509e; stroke-width: 0px;"/>
    </g>
  </g>
</svg>